<svg xmlns="http://www.w3.org/2000/svg" viewBox="0 0 346.54 356.38"><defs><style>.cls-1{isolation:isolate;}.cls-2{fill:#eaf9f8;}.cls-3{fill:#e03c03;}.cls-4{fill:#ff6224;}.cls-5{fill:#ffc947;}.cls-6{fill:#20c3c5;}.cls-27,.cls-7{fill:#fff;}.cls-8{fill:#383873;}.cls-9{fill:#6bb93f;}.cls-10{fill:#f4d123;}.cls-11{fill:#e92e00;}.cls-12{fill:#86bfbc;}.cls-13{fill:#b8e3e2;}.cls-14{fill:#9fccc9;}.cls-15,.cls-24,.cls-25{fill:none;stroke:#000;stroke-linecap:round;stroke-width:0.82px;}.cls-15,.cls-24,.cls-25,.cls-27{stroke-miterlimit:10;}.cls-15,.cls-21{opacity:0.15;}.cls-15,.cls-18,.cls-21,.cls-23,.cls-26{mix-blend-mode:overlay;}.cls-16{fill:#382424;}.cls-17{fill:#ffad94;}.cls-18,.cls-23{opacity:0.25;}.cls-19{fill:#0c2059;}.cls-20{fill:#2e4780;}.cls-22{fill:#169799;}.cls-25{stroke-dasharray:4.15 4.15;}.cls-26{opacity:0.53;}.cls-27{font-size:22px;stroke:#fff;stroke-width:0.75px;}.cls-27,.cls-28{font-family:ArialMT, Arial;}.cls-28{font-size:3px;}</style></defs><g class="cls-1"><g id="OBJECTS"><path class="cls-2" d="M345,183.94c-23.34,34.95-73.16,143-60.9,183.15l-178.71,0s-25.82-19.22-50.91-52.65c-4.56-6.07-9.09-12.62-13.44-19.6a244.72,244.72,0,0,1-13-23.64C16.34,247,8,219,7.7,188,6.53,80.61,99.45-19.16,225.84,21.1S368.28,149,345,183.94Z" transform="translate(-7.42 -11.97)"/><path class="cls-3" d="M232.08,366.82a1.24,1.24,0,0,1-1-.45l-95.3-118.5a1.23,1.23,0,0,1,1.92-1.54L233,364.83a1.22,1.22,0,0,1-.19,1.72A1.19,1.19,0,0,1,232.08,366.82Z" transform="translate(-7.42 -11.97)"/><path class="cls-4" d="M85.3,368.36a1.2,1.2,0,0,1-.76-.27,1.23,1.23,0,0,1-.19-1.73l95.3-118.49a1.23,1.23,0,1,1,1.91,1.54L86.26,367.9A1.23,1.23,0,0,1,85.3,368.36Z" transform="translate(-7.42 -11.97)"/><path class="cls-4" d="M179.93,367.13a1.2,1.2,0,0,1-1-.46L83.67,248.18a1.23,1.23,0,1,1,1.91-1.54l95.3,118.49a1.22,1.22,0,0,1-.95,2Z" transform="translate(-7.42 -11.97)"/><path class="cls-3" d="M102.19,251.78H57.92a3.15,3.15,0,0,1-3.15-3.14h0a3.15,3.15,0,0,1,3.15-3.15h44.27a3.15,3.15,0,0,1,3.15,3.15h0A3.15,3.15,0,0,1,102.19,251.78Z" transform="translate(-7.42 -11.97)"/><path class="cls-4" d="M229.59,251.78H103a3.15,3.15,0,0,1-3.15-3.14h0a3.15,3.15,0,0,1,3.15-3.15H229.59Z" transform="translate(-7.42 -11.97)"/><path class="cls-3" d="M136.39,307.88a3.44,3.44,0,1,1-3.43-3.43A3.44,3.44,0,0,1,136.39,307.88Z" transform="translate(-7.42 -11.97)"/><path class="cls-5" d="M188.92,307.88a3.44,3.44,0,1,1-3.44-3.43A3.44,3.44,0,0,1,188.92,307.88Z" transform="translate(-7.42 -11.97)"/><rect class="cls-6" x="87.18" y="98.45" width="52.58" height="41.15" rx="3.99"/><path class="cls-7" d="M132.31,128.59h-1.65a10.13,10.13,0,0,0-1.12-2.54l1.28-1.27a1.26,1.26,0,0,0,0-1.76l-1.8-1.79a1.23,1.23,0,0,0-1.75,0l-1.36,1.35a9.64,9.64,0,0,0-2.4-1v-2a1.24,1.24,0,0,0-1.24-1.25h-2.53a1.25,1.25,0,0,0-1.25,1.25v2a9.77,9.77,0,0,0-2.32.92l-1.49-1.48a1.24,1.24,0,0,0-1.76,0l-1.79,1.79a1.24,1.24,0,0,0,0,1.76L112.5,126a10,10,0,0,0-1.08,2.37h-1.93a1.25,1.25,0,0,0-1.25,1.24v2.54a1.24,1.24,0,0,0,1.25,1.24h1.69a9.51,9.51,0,0,0,1,2.66L111,137.22a1.23,1.23,0,0,0,0,1.75l1.79,1.8a1.26,1.26,0,0,0,1.76,0l1-1a9.57,9.57,0,0,0,2.74,1.24v1.41a1.24,1.24,0,0,0,1.24,1.24h2.54a1.24,1.24,0,0,0,1.24-1.24V141.1a10,10,0,0,0,2.85-1.15l1,1a1.26,1.26,0,0,0,1.76,0l1.8-1.8a1.24,1.24,0,0,0,0-1.75l-1-1a9.81,9.81,0,0,0,1.09-2.75h1.55a1.25,1.25,0,0,0,1.24-1.25v-2.53A1.25,1.25,0,0,0,132.31,128.59Zm-10.06,9a6.39,6.39,0,1,1,5-5A6.4,6.4,0,0,1,122.25,137.61Z" transform="translate(-7.42 -11.97)"/><rect class="cls-4" x="154.34" y="75.72" width="52.58" height="41.15" rx="3.99"/><path class="cls-7" d="M179.17,115.18a1.19,1.19,0,0,1-.86-.38l-5.55-5.93a1.38,1.38,0,0,1,0-1.86l5.64-6a1.17,1.17,0,0,1,1.74,0,1.37,1.37,0,0,1,0,1.85l-4.77,5.11,4.67,5a1.38,1.38,0,0,1,0,1.86A1.2,1.2,0,0,1,179.17,115.18Z" transform="translate(-7.42 -11.97)"/><path class="cls-7" d="M196.93,115.18a1.22,1.22,0,0,1-.87-.38,1.38,1.38,0,0,1,0-1.86l4.68-5L196,102.83a1.37,1.37,0,0,1,0-1.85,1.15,1.15,0,0,1,1.73,0l5.64,6a1.35,1.35,0,0,1,.36.93,1.37,1.37,0,0,1-.36.93l-5.54,5.93A1.22,1.22,0,0,1,196.93,115.18Z" transform="translate(-7.42 -11.97)"/><path class="cls-7" d="M185.3,116.81a1.09,1.09,0,0,1-.46-.1,1.35,1.35,0,0,1-.68-1.71l5.51-14.46a1.19,1.19,0,0,1,1.6-.72,1.35,1.35,0,0,1,.67,1.71L186.44,116A1.24,1.24,0,0,1,185.3,116.81Z" transform="translate(-7.42 -11.97)"/><path class="cls-7" d="M134.18,119.72H241.54a1.66,1.66,0,0,1,1.66,1.66v3.4a0,0,0,0,1,0,0H132.52a0,0,0,0,1,0,0v-3.4a1.66,1.66,0,0,1,1.66-1.66Z"/><path class="cls-8" d="M132.52,124.77H243.2a0,0,0,0,1,0,0v55.92a3.09,3.09,0,0,1-3.09,3.09H135.61a3.09,3.09,0,0,1-3.09-3.09V124.77A0,0,0,0,1,132.52,124.77Z"/><path class="cls-9" d="M245.31,134.22a.78.78,0,1,1-.78-.78A.78.78,0,0,1,245.31,134.22Z" transform="translate(-7.42 -11.97)"/><path class="cls-10" d="M240,134.22a.78.78,0,0,1-.78.78.78.78,0,0,1,0-1.56A.78.78,0,0,1,240,134.22Z" transform="translate(-7.42 -11.97)"/><path class="cls-11" d="M234.61,134.22a.78.78,0,0,1-.78.78.78.78,0,0,1,0-1.56A.78.78,0,0,1,234.61,134.22Z" transform="translate(-7.42 -11.97)"/><path class="cls-6" d="M207.14,144.72H145.68a1.07,1.07,0,0,1-1.07-1.07h0a1.07,1.07,0,0,1,1.07-1.07h61.46a1.07,1.07,0,0,1,1.07,1.07h0A1.07,1.07,0,0,1,207.14,144.72Z" transform="translate(-7.42 -11.97)"/><path class="cls-6" d="M207.14,151.53H145.68a1.07,1.07,0,0,1-1.07-1.07h0a1.07,1.07,0,0,1,1.07-1.07h61.46a1.07,1.07,0,0,1,1.07,1.07h0A1.07,1.07,0,0,1,207.14,151.53Z" transform="translate(-7.42 -11.97)"/><path class="cls-6" d="M177.82,158.34H145.68a1.07,1.07,0,0,1-1.07-1.07h0a1.07,1.07,0,0,1,1.07-1.07h32.14a1.07,1.07,0,0,1,1.07,1.07h0A1.07,1.07,0,0,1,177.82,158.34Z" transform="translate(-7.42 -11.97)"/><path class="cls-4" d="M207.14,172H145.68a1.07,1.07,0,0,1-1.07-1.07h0a1.07,1.07,0,0,1,1.07-1.07h61.46a1.07,1.07,0,0,1,1.07,1.07h0A1.07,1.07,0,0,1,207.14,172Z" transform="translate(-7.42 -11.97)"/><path class="cls-4" d="M177.82,178.76H145.68a1.07,1.07,0,0,1-1.07-1.07h0a1.07,1.07,0,0,1,1.07-1.07h32.14a1.07,1.07,0,0,1,1.07,1.07h0A1.07,1.07,0,0,1,177.82,178.76Z" transform="translate(-7.42 -11.97)"/><path class="cls-6" d="M177.82,185.56H145.68a1.06,1.06,0,0,1-1.07-1.06h0a1.06,1.06,0,0,1,1.07-1.07h32.14a1.06,1.06,0,0,1,1.07,1.07h0A1.06,1.06,0,0,1,177.82,185.56Z" transform="translate(-7.42 -11.97)"/><path class="cls-7" d="M207.14,158.34H184.05a1.06,1.06,0,0,1-1.07-1.07h0a1.06,1.06,0,0,1,1.07-1.07h23.09a1.07,1.07,0,0,1,1.07,1.07h0A1.07,1.07,0,0,1,207.14,158.34Z" transform="translate(-7.42 -11.97)"/><path class="cls-4" d="M237.65,143.05l-16.33,16.33a1.07,1.07,0,0,1-1.52,0h0a1.08,1.08,0,0,1,0-1.51l16.34-16.33a1.06,1.06,0,0,1,1.51,0h0A1.06,1.06,0,0,1,237.65,143.05Z" transform="translate(-7.42 -11.97)"/><circle class="cls-4" cx="228.73" cy="173.94" r="9.63" transform="translate(-0.72 344.4) rotate(-76.66)"/><path class="cls-6" d="M227.47,180.66A5.46,5.46,0,1,1,222,175.2,5.45,5.45,0,0,1,227.47,180.66Z" transform="translate(-7.42 -11.97)"/><polyline class="cls-8" points="132.52 177.81 132.52 197.28 150.41 179.38"/><polygon class="cls-12" points="113.47 202.54 152.74 202.54 166.93 229.87 127.67 229.87 113.47 202.54"/><path class="cls-7" d="M135.89,239.82l-11.76-22.63a.72.72,0,0,1,.64-1h34a.7.7,0,0,1,.63.39l11.76,22.62a.72.72,0,0,1-.63,1.05h-34A.71.71,0,0,1,135.89,239.82Z" transform="translate(-7.42 -11.97)"/><rect class="cls-13" x="127.67" y="229.87" width="31.8" height="3.65"/><path class="cls-14" d="M194.21,241.84H162.83a1.83,1.83,0,0,0-1.82,1.83h0a1.83,1.83,0,0,0,1.82,1.82h31.38a1.83,1.83,0,0,0,1.83-1.82h0A1.83,1.83,0,0,0,194.21,241.84Z" transform="translate(-7.42 -11.97)"/><path class="cls-13" d="M135.09,241.84,120.9,214.52l-.71.53a1.17,1.17,0,0,0-.34,1.48l15.24,29Z" transform="translate(-7.42 -11.97)"/><rect class="cls-14" x="138.46" y="231.57" width="3.5" height="0.61"/><rect class="cls-14" x="142.86" y="231.57" width="3.5" height="0.61"/><rect class="cls-14" x="147.27" y="231.57" width="3.5" height="0.61"/><path class="cls-8" d="M206.68,295.33s-32.57,25.35-37.74,31.8c-1.94,2.43-5.34,6.71-8.86,11.09-5.78,7.19-11.91,14.69-12.64,14.87-1.16.29-10.93-7.15-11.23-8.75-.18-1,8.72-16.27,16.42-28.55,4.69-7.47,8.93-13.83,10.42-15.21,3.94-3.65,28.17-16.48,28.17-16.48Z" transform="translate(-7.42 -11.97)"/><path class="cls-15" d="M144.53,347.68s30.42-43.31,45.7-50.6" transform="translate(-7.42 -11.97)"/><path class="cls-16" d="M240.62,184.13c-.35.78-.74,1.6-1.18,2.44-2.38,4.55-.62,9.11-3.34,10.27a2.55,2.55,0,0,1-.55.17c-3.5.78-11.57-3.89-11.92-6.22s2.48-6.33,0-6.81-3.83,3.7-3.83,3.7c-2.05.21-2.78-3.22-6.13-3.22a5.9,5.9,0,0,0-1.4.18,10,10,0,0,0-3.84,2.12,8.94,8.94,0,0,0-1,1,6.66,6.66,0,0,1-2.85-5.62c.24-5.9,2.41-10.2,7.66-11.08.58-6.56,6-10.07,13.2-10.29,6.33-.2,7.28,5.49,7.42,6.91a15.83,15.83,0,0,0-1.85-6.91c3.16-.14,6,2.12,5.23,9.49.73-2.2,3.28-3.58,5.24-2-1.81,0-3.57,3.07-3.57,3.07a12.29,12.29,0,0,1,3.6,3.89C242.69,177.32,242.23,180.4,240.62,184.13Z" transform="translate(-7.42 -11.97)"/><path class="cls-17" d="M236.1,196.84l-.08,1.08-.28,3.83s-5.83,5-9.13,0l-.08-.1c-1-1.52-1.95-2.05-2.79-2.15-1.82-.22-3.3,1.56-4.82-.37a37.18,37.18,0,0,1-6.65-14.49,5.9,5.9,0,0,1,1.4-.18c3.35,0,4.08,3.43,6.13,3.22,0,0,1.34-4.18,3.83-3.7s-.36,4.48,0,6.81c.15,1,1.85,2.55,4,3.82,2.5,1.5,5.61,2.69,7.58,2.46.12,0,.24,0,.35-.06A2.55,2.55,0,0,0,236.1,196.84Z" transform="translate(-7.42 -11.97)"/><path class="cls-18" d="M237,204c-2.63,1.79-7.44,2.09-7.44,2.09l-3.94-.59s-1.64-2.39-.87-3.72a4.47,4.47,0,0,1,1-1.05,27.9,27.9,0,0,1,4.51-2.89,14.32,14.32,0,0,1,5.05-1.77C238.66,195.85,239.64,202.17,237,204Z" transform="translate(-7.42 -11.97)"/><path class="cls-6" d="M236.23,267.81c-5.86,1.13-18.26-2.32-24.19-5-1.75-.79-2.95-1.51-3.24-2-1.13-2,0-3.54,2.84-9.91.32-.72.65-1.5,1-2.34,1.92-4.51,1.92-14.13,1.92-22.42,0-7.09-.06-13.22,1.07-14.3,2.45-2.36,14.66-10.08,14.66-10.08l2.43,12.67s1.37,6.43,2.82,14.83C238.22,244.71,241.15,266.86,236.23,267.81Z" transform="translate(-7.42 -11.97)"/><path class="cls-8" d="M240.32,273.45c0,.58-5.84,14.19-10.73,16.14s-34.4-.2-34.4-.2l-14.58,9.54,3,28.73,2.13,20,.06.64c-4.46,2.92-15.69,3.7-16.91,1.19v0c-1.17-2.53-19.07-56.4-12.06-65.74S208.8,260.8,208.8,260.8a24.6,24.6,0,0,0,4,2A76.86,76.86,0,0,0,229,266.9c1.86.29,3.49.5,4.73.65,1.57.19,2.52.26,2.52.26S240.32,272.86,240.32,273.45Z" transform="translate(-7.42 -11.97)"/><path class="cls-19" d="M187.7,367.09H149.78a2.23,2.23,0,0,1,.63-2c1.54-1.85,5.4-3.7,9.11-5.31,3.53-1.52,6.92-2.83,8.06-3.73,2.67-2.12,1.44-6.25,1.36-6.5.41.84,2,1.32,4,1.46,4,.28,10-.71,12.9-2.65l-.06-.64c1.13,2.16,1.66,12.84,1.84,17.37C187.68,366.31,187.7,367.09,187.7,367.09Z" transform="translate(-7.42 -11.97)"/><path class="cls-20" d="M173,351c-.12,1.81-.38,4.74-.9,5.52-.78,1.17-9.15,5.26-10.31,4.86a6.87,6.87,0,0,1-2.22-1.61c3.53-1.52,6.92-2.83,8.06-3.73,2.67-2.12,1.44-6.25,1.36-6.5C169.35,350.35,170.9,350.83,173,351Z" transform="translate(-7.42 -11.97)"/><path class="cls-20" d="M187.7,367.09H149.78a2.23,2.23,0,0,1,.63-2h37.22C187.68,366.31,187.7,367.09,187.7,367.09Z" transform="translate(-7.42 -11.97)"/><path class="cls-19" d="M147.44,353.09a88.2,88.2,0,0,1-5.37,11.61c-1,1.61-1.94,2.65-2.6,2.39-2.33-.87-25.77-20.8-23.53-22.26a3.77,3.77,0,0,1,1.51-.44,44.29,44.29,0,0,1,8.54.34c2.69.28,5.18.58,6.48.58,3.31,0,3.74-1,3.74-1a6.14,6.14,0,0,0,1.62,2C140.73,349.08,146.56,353.31,147.44,353.09Z" transform="translate(-7.42 -11.97)"/><path class="cls-20" d="M137.83,346.33a10.84,10.84,0,0,1-11.17.56,2.26,2.26,0,0,1-.67-2.16c2.69.28,5.18.58,6.48.58,3.31,0,3.74-1,3.74-1A6.14,6.14,0,0,0,137.83,346.33Z" transform="translate(-7.42 -11.97)"/><path class="cls-20" d="M142.07,364.7c-1,1.61-1.94,2.65-2.6,2.39-2.33-.87-25.77-20.8-23.53-22.26a3.77,3.77,0,0,1,1.51-.44Z" transform="translate(-7.42 -11.97)"/><path class="cls-17" d="M212.05,243c-1.83,2.55-5.11,6.45-7.81,6l-.34-.06c-5.15-.9-35.48-8.51-36.91-8.79s-11.67-.39-11.08-1.46,6.41-4.47,8-4.39,7.68,1.86,13.81,1.66,22.17,0,22.17,0l.78-1.34,1.14-2C201.46,238.62,208.62,243.47,212.05,243Z" transform="translate(-7.42 -11.97)"/><path class="cls-15" d="M212.05,265.13s-1.39,7.44,4,9.92" transform="translate(-7.42 -11.97)"/><path class="cls-15" d="M209.2,271.11s-36,15.37-37.76,20.13,9.17,56.44,9.17,56.44" transform="translate(-7.42 -11.97)"/><path class="cls-21" d="M240.32,273.45c0,.58-5.84,14.19-10.73,16.14s-34.4-.2-34.4-.2l-14.58,9.54,3,28.73s-6.16-32.82-6.16-35c0-1.83,40.74-13.55,51.48-25.8,4.21.66,7.25.91,7.25.91S240.32,272.86,240.32,273.45Z" transform="translate(-7.42 -11.97)"/><path class="cls-18" d="M221.11,238.63c-2.53,3.59-6.61,8.14-9.47,12.26.32-.72.65-1.5,1-2.34,1.92-4.51,1.92-14.13,1.92-22.42l8.73-5.78S225.19,232.84,221.11,238.63Z" transform="translate(-7.42 -11.97)"/><path class="cls-22" d="M213.65,241.88c-.38.34-.76.69-1.15,1a2,2,0,0,1-.45.1c-3.43.48-10.59-4.37-10.27-10.31a8.9,8.9,0,0,1,.95-2.48c2.93-5.91,11.75-19.06,13.37-18.46,0,0,5.66.88,7.2,8.61C224.74,227.61,219.54,236.42,213.65,241.88Z" transform="translate(-7.42 -11.97)"/><path class="cls-18" d="M233.71,267.55c-1.24-.15-2.87-.36-4.73-.65a76.86,76.86,0,0,1-16.17-4.08c4.41-.16,13.83-3.06,15-24.62a105.51,105.51,0,0,0,2.37,12.5A167.76,167.76,0,0,1,233.71,267.55Z" transform="translate(-7.42 -11.97)"/><path class="cls-18" d="M231.39,196.41a13.75,13.75,0,0,0-1.08,1.4,27.9,27.9,0,0,0-4.51,2.89,3.26,3.26,0,0,0-2.06-1.2l3.88-4.89A20.65,20.65,0,0,0,231.39,196.41Z" transform="translate(-7.42 -11.97)"/><path class="cls-18" d="M212.05,243c-1.83,2.55-5.11,6.45-7.81,6l-.34-.06c-3.34-4.82-3.46-11.15-3.26-14.32l1.14-2C201.46,238.62,208.62,243.47,212.05,243Z" transform="translate(-7.42 -11.97)"/><path class="cls-18" d="M240.62,184.13c-.35.78-.74,1.6-1.18,2.44a16.55,16.55,0,0,0-1.53,6.3,11.59,11.59,0,0,0-1.2-.82,21.17,21.17,0,0,0-5.32,4.36h0c-3.57-1.27-7.51-4-7.75-5.62-.36-2.33,2.48-6.33,0-6.81s-3.83,3.7-3.83,3.7c-2.05.21-2.78-3.22-6.13-3.22a5.9,5.9,0,0,0-1.4.18,10,10,0,0,0-3.84,2.12s3.78-5.31,9.71-4.24c0,0-.86-1.65-4.86-1.45,8.37-2.73,13.71-1.66,16.29,1.36C231.67,184.89,236.61,187.93,240.62,184.13Z" transform="translate(-7.42 -11.97)"/><path class="cls-13" d="M257.63,298.93H228.45s23.14-6.81,23.14-52.71v-1.75c-.24-30.68-6.8-47.6-14.88-52.42a35.13,35.13,0,0,1,10.34-3.92,55.67,55.67,0,0,1,6.44-1c20-2,35.94,5.8,37.84,14.66S281.54,298.93,257.63,298.93Z" transform="translate(-7.42 -11.97)"/><path class="cls-12" d="M251.59,246.22c0,45.9-23.14,52.71-23.14,52.71H180.61l2-1.42,12.59-8.12,25.29-1.75c1.35-5.64,5.05-5.83,10.69-6.42,3.29-.33,3.6-5.87,2.61-13.2a167.56,167.56,0,0,0-3.63-17.32,105.51,105.51,0,0,1-2.37-12.5,107.58,107.58,0,0,1-.91-13.48,113.17,113.17,0,0,1,2.35-23.92c.11-.58.23-1.14.36-1.67,0,0,0,0,0-.06a11.68,11.68,0,0,1,1.79-2.66h0a21.17,21.17,0,0,1,5.32-4.36,11.59,11.59,0,0,1,1.2.82c7.52,5.73,13.45,22.45,13.68,51.6Z" transform="translate(-7.42 -11.97)"/><path class="cls-13" d="M242.36,367.09H207.92a1.24,1.24,0,0,1-.76-2.22l8.62-6.74a15.82,15.82,0,0,0,6.05-12.44V298.93h6.62v46.76a15.8,15.8,0,0,0,6.06,12.44l8.61,6.74A1.24,1.24,0,0,1,242.36,367.09Z" transform="translate(-7.42 -11.97)"/><g class="cls-23"><path class="cls-24" d="M268.63,188.85s.25.65.66,1.93" transform="translate(-7.42 -11.97)"/><path class="cls-25" d="M270.45,194.77a160.92,160.92,0,0,1,3.9,20.52c3.13,24.16-.05,58.06-21.05,79.54" transform="translate(-7.42 -11.97)"/><path class="cls-24" d="M251.81,296.3c-.49.47-1,.93-1.5,1.39" transform="translate(-7.42 -11.97)"/></g><path class="cls-21" d="M228.45,298.93V311.7a46.76,46.76,0,0,1-6.62,2.78V298.93Z" transform="translate(-7.42 -11.97)"/><path class="cls-21" d="M237.59,279.09c-1.56,4.86-11.27,4-12.45,7.59-2.5,7.63-3.89,4.27-13.5,5.24-5.5.56-9.5,4.09-11.9,7H180.61l2-1.42,12.59-8.12,25.29-1.75c1.35-5.64,5.05-5.83,10.69-6.42,3.29-.33,3.6-5.87,2.61-13.2a167.56,167.56,0,0,0-3.63-17.32,105.51,105.51,0,0,1-2.37-12.5,107.58,107.58,0,0,1-.91-13.48C230.61,244.21,238.74,275.49,237.59,279.09Z" transform="translate(-7.42 -11.97)"/><path class="cls-21" d="M251.59,246.22v-1.75c-.24-30.68-6.8-47.6-14.88-52.42a35.13,35.13,0,0,1,10.34-3.92c-1.33,1.92-2.72,4.81-2.07,7.9,1.17,5.46,14.4,26.46,9.34,60.11-3.65,24.27-2.44,36.9,1.37,42.79H228.45S251.59,292.12,251.59,246.22Z" transform="translate(-7.42 -11.97)"/><path class="cls-18" d="M84.65,221.21a15.93,15.93,0,0,1-.31,3H75a29.31,29.31,0,0,1-10-10.91c2.51,2.74,6.8,6.07,11.17,7.08C80,221.24,82.82,220.86,84.65,221.21Z" transform="translate(-7.42 -11.97)"/><path class="cls-6" d="M106.45,183.94c-1,3.81-5.85,11.19-10.24,19.1-4.79,8.62-9.08,17.86-7.4,23.73a13.33,13.33,0,0,1,.6,3.33c0,2.56-1.92,1.76-3.88.31a36.35,36.35,0,0,1-4-3.64l.15-11.38s-6.45-5.92-1.15-18.89c.33-.81.72-1.67,1.15-2.55,7.29-14.73,18.23-30.19,7.88-34.57C103.83,158.5,108.65,176,106.45,183.94Z" transform="translate(-7.42 -11.97)"/><g class="cls-26"><path d="M89.54,159.38A10.62,10.62,0,0,1,96,164.05a14.89,14.89,0,0,1,1,1.79,16.46,16.46,0,0,1,.7,1.93,15.31,15.31,0,0,1,.48,2l.17,1,.07,1a25.78,25.78,0,0,1-1.85,8c-.95,2.56-2,5.07-3.19,7.55-2.28,5-4.73,9.84-6.9,14.84a67.93,67.93,0,0,0-2.86,7.62,24.39,24.39,0,0,0-.85,3.93,8.6,8.6,0,0,0,.26,3.86h0a.42.42,0,0,1-.25.53.41.41,0,0,1-.52-.25h0a9.23,9.23,0,0,1-.25-4.23,24.8,24.8,0,0,1,.92-4,69,69,0,0,1,3-7.66c2.24-5,4.75-9.84,7.09-14.76,1.16-2.47,2.29-4.95,3.27-7.49a25.16,25.16,0,0,0,1.93-7.87l0-1-.16-1a13.63,13.63,0,0,0-.45-2,16.8,16.8,0,0,0-.67-1.92,15.47,15.47,0,0,0-1-1.79A10.55,10.55,0,0,0,89.54,159.38Z" transform="translate(-7.42 -11.97)"/></g><path class="cls-22" d="M99.89,206.93c-4.37,11.53,0,20.27-6.56,21.51-3,.57-4.33-1.65-4.88-4.24a23.15,23.15,0,0,1-.22-6.62A22.17,22.17,0,0,1,91.68,212,13.85,13.85,0,0,1,99.89,206.93Z" transform="translate(-7.42 -11.97)"/><path class="cls-13" d="M84.65,221.21c0,2.69-.63,5-1.88,6.16a3.45,3.45,0,0,1-.36.32c-3.1,2.51-5.08-2.09-5.08-2.09S69.08,221.53,65,213.27c-3.14-6.34-3.83-15.16,3.54-26.51,1.08,8.08,5.51,13.58,9.9,18.8h0l1.63,1.94A22.53,22.53,0,0,1,84.65,221.21Z" transform="translate(-7.42 -11.97)"/><g class="cls-26"><path d="M68.53,186.77A36.06,36.06,0,0,0,68,197.34a22.9,22.9,0,0,0,3.25,10c1.83,3,4.37,5.5,6.68,8.22a20.16,20.16,0,0,1,3,4.46,10.65,10.65,0,0,1,1,5.37.41.41,0,0,1-.82-.07h0a10,10,0,0,0-.83-5,19.66,19.66,0,0,0-2.85-4.37c-2.23-2.73-4.76-5.29-6.56-8.4a23.09,23.09,0,0,1-3.1-10.15A36.2,36.2,0,0,1,68.53,186.77Z" transform="translate(-7.42 -11.97)"/></g><g class="cls-23"><path d="M99.89,206.93c-1.25,1.45-2.42,3-3.53,4.53s-2.17,3.16-3.12,4.81a30.25,30.25,0,0,0-4,10.56h0a.41.41,0,0,1-.81-.11v0a30.83,30.83,0,0,1,4.49-10.65c1-1.63,2.14-3.2,3.3-4.72S98.59,208.34,99.89,206.93Z" transform="translate(-7.42 -11.97)"/></g><path class="cls-13" d="M97.24,227.06l-2.8,17.19a1.53,1.53,0,0,1-1.51,1.24H75.49A1.53,1.53,0,0,1,74,244.25l-2.27-14-.52-3.23a1.52,1.52,0,0,1,1.5-1.81h23A1.54,1.54,0,0,1,97.24,227.06Z" transform="translate(-7.42 -11.97)"/><path class="cls-12" d="M99.89,230.56H68.53l.83-4.68a2.07,2.07,0,0,1,2-1.7H97a2.06,2.06,0,0,1,2,1.7Z" transform="translate(-7.42 -11.97)"/><path class="cls-18" d="M88.23,217.58a23.23,23.23,0,0,0,.21,6.6h-4.1a15.93,15.93,0,0,0,.31-3,22.53,22.53,0,0,0-4.59-13.7l-1.63-1.94h0a25.77,25.77,0,0,1,2.08-9.06c.24,4.14,1.25,11.32,5.38,12.08,3.13.58,7.21-2.53,10.32-5.54-1.64,3-3.22,6-4.53,8.93A22.17,22.17,0,0,0,88.23,217.58Z" transform="translate(-7.42 -11.97)"/><path class="cls-18" d="M85.9,245.49H75.49A1.53,1.53,0,0,1,74,244.25l-2.23-13.69h9a25.6,25.6,0,0,0,.18,8.27A12.35,12.35,0,0,0,85.9,245.49Z" transform="translate(-7.42 -11.97)"/><rect class="cls-5" x="108.76" y="50.79" width="52.58" height="41.15" rx="3.99"/><path class="cls-8" d="M185.11,66.29a1.88,1.88,0,0,0,2.06-2.13,23.91,23.91,0,0,0-.18-2.57,26.21,26.21,0,0,1-.18-2.68A3.51,3.51,0,0,1,190.63,55H191v1.58h-.46c-1.27,0-1.79.91-1.79,2.27a18.51,18.51,0,0,0,.18,2.31c.06.79.15,1.52.15,2.25,0,2.36-.78,3.18-2.09,3.55v.06c1.31.39,2.12,1.21,2.09,3.61,0,.76-.09,1.52-.15,2.27a19.47,19.47,0,0,0-.18,2.34c0,1.37.46,2.31,1.82,2.31H191v1.58h-.4c-2,0-3.79-1-3.79-3.89a26.61,26.61,0,0,1,.18-2.7,26,26,0,0,0,.18-2.61,1.91,1.91,0,0,0-2.06-2.15Z" transform="translate(-7.42 -11.97)"/><path class="cls-8" d="M216.05,67.81A1.92,1.92,0,0,0,214,70a26,26,0,0,0,.18,2.61,24,24,0,0,1,.19,2.7c0,2.88-1.79,3.89-3.8,3.89h-.39V77.58h.42c1.37-.15,1.82-.94,1.82-2.31,0-.82-.09-1.58-.15-2.34a19.11,19.11,0,0,1-.18-2.27c0-2.4.79-3.22,2.09-3.61V67c-1.3-.37-2.12-1.19-2.09-3.55a20,20,0,0,1,.18-2.25c.06-.73.15-1.49.15-2.31,0-1.36-.51-2.12-1.79-2.27h-.45V55h.36a3.51,3.51,0,0,1,3.83,3.88,23.64,23.64,0,0,1-.19,2.68,23.91,23.91,0,0,0-.18,2.57,1.89,1.89,0,0,0,2.07,2.13Z" transform="translate(-7.42 -11.97)"/><polygon class="cls-4" points="198.21 58.04 198.21 52.2 193.15 49.28 188.1 52.2 188.1 58.04 193.15 60.96 198.21 58.04"/><path class="cls-4" d="M243.67,99.1A12.33,12.33,0,0,0,229,118.33l-1.86-.22a.41.41,0,0,0-.09.81l2.82.34a.4.4,0,0,0,.3-.09.39.39,0,0,0,.15-.27l.33-2.73a.41.41,0,0,0-.36-.46.41.41,0,0,0-.45.36l-.21,1.74a11.51,11.51,0,0,1,13.71-18,.41.41,0,1,0,.37-.73Z" transform="translate(-7.42 -11.97)"/><path class="cls-4" d="M233,121.75a12.33,12.33,0,0,0,14.72-19.23l1.85.22a.41.41,0,0,0,.45-.36.41.41,0,0,0-.35-.46l-2.83-.33a.44.44,0,0,0-.3.08.41.41,0,0,0-.15.28l-.33,2.73a.41.41,0,0,0,.36.45.41.41,0,0,0,.46-.36l.2-1.73a11.51,11.51,0,0,1-13.71,18,.4.4,0,0,0-.55.18A.41.41,0,0,0,233,121.75Z" transform="translate(-7.42 -11.97)"/><path class="cls-4" d="M342.5,144.72H268.43a2.44,2.44,0,0,1-2.44-2.44h0a2.45,2.45,0,0,1,2.44-2.45H342.5a2.45,2.45,0,0,1,2.45,2.45h0A2.45,2.45,0,0,1,342.5,144.72Z" transform="translate(-7.42 -11.97)"/><path class="cls-6" d="M316.05,155.35H268.43A2.45,2.45,0,0,1,266,152.9h0a2.44,2.44,0,0,1,2.44-2.44h47.62a2.45,2.45,0,0,1,2.45,2.44h0A2.45,2.45,0,0,1,316.05,155.35Z" transform="translate(-7.42 -11.97)"/><path class="cls-6" d="M316.05,166.76H268.43a2.45,2.45,0,0,1-2.44-2.45h0a2.44,2.44,0,0,1,2.44-2.44h47.62a2.45,2.45,0,0,1,2.45,2.44h0A2.45,2.45,0,0,1,316.05,166.76Z" transform="translate(-7.42 -11.97)"/><path class="cls-6" d="M79.86,104.1H41.38a2.44,2.44,0,0,1-2.44-2.44h0a2.45,2.45,0,0,1,2.44-2.45H79.86a2.45,2.45,0,0,1,2.44,2.45h0A2.44,2.44,0,0,1,79.86,104.1Z" transform="translate(-7.42 -11.97)"/><path class="cls-4" d="M65.33,114.73H41.38a2.45,2.45,0,0,1-2.44-2.45h0a2.44,2.44,0,0,1,2.44-2.44H65.33a2.45,2.45,0,0,1,2.45,2.44h0A2.45,2.45,0,0,1,65.33,114.73Z" transform="translate(-7.42 -11.97)"/><path class="cls-4" d="M65.33,126.14H41.38a2.45,2.45,0,0,1-2.44-2.45h0a2.44,2.44,0,0,1,2.44-2.44H65.33a2.45,2.45,0,0,1,2.45,2.44h0A2.45,2.45,0,0,1,65.33,126.14Z" transform="translate(-7.42 -11.97)"/><path class="cls-22" d="M309.13,281.32a118.61,118.61,0,0,1-8.26,18.52c-10.35,18.91-22.37,30.94-22.82,48.58a105.65,105.65,0,0,1-.74-35.54c1.68-10.64,5.48-22,13.24-31.56C312.17,254.74,309,230.56,309,230.56S319.81,250.39,309.13,281.32Z" transform="translate(-7.42 -11.97)"/><g class="cls-23"><path d="M283.66,327.73a27.19,27.19,0,0,1,0-6.5,40.19,40.19,0,0,1,1.15-6.36,59.29,59.29,0,0,1,4.6-12c.93-1.93,2-3.77,3.13-5.62l3.48-5.37a74.21,74.21,0,0,0,5.66-11.4,110.11,110.11,0,0,0,4-12.1q1.69-6.17,2.79-12.47A117.81,117.81,0,0,0,310,243.2c.12-2.13.18-4.26.09-6.39a28.43,28.43,0,0,0-.29-3.19,10.21,10.21,0,0,0-.87-3.06,10.13,10.13,0,0,1,.92,3.06,28.34,28.34,0,0,1,.34,3.18,62.29,62.29,0,0,1,0,6.41A109,109,0,0,1,308.87,256q-1,6.33-2.66,12.54a111.31,111.31,0,0,1-3.94,12.21,75.62,75.62,0,0,1-5.59,11.57l-3.45,5.39c-1.07,1.84-2.17,3.66-3.09,5.57a58.85,58.85,0,0,0-4.5,11.86,43.77,43.77,0,0,0-1.14,6.23,26.23,26.23,0,0,0,0,6.26v0a.41.41,0,0,1-.35.46A.42.42,0,0,1,283.66,327.73Z" transform="translate(-7.42 -11.97)"/></g><path class="cls-18" d="M300.87,299.84c-10.35,18.91-22.37,30.94-22.82,48.58a105.65,105.65,0,0,1-.74-35.54C284,310.13,293.46,305.66,300.87,299.84Z" transform="translate(-7.42 -11.97)"/><path class="cls-6" d="M284.05,367.09s-7.56-12.92,10.33-28.87,31.9-37.05,29.18-54.12c-17.12,19.88-62.63,48.08-49.79,83Z" transform="translate(-7.42 -11.97)"/><g class="cls-23"><path d="M323.56,284.1a58.4,58.4,0,0,1-6.47,10.56A90.3,90.3,0,0,1,309,304a122.55,122.55,0,0,1-9.24,8.27,60.48,60.48,0,0,0-8.54,8.91,67.11,67.11,0,0,0-11.44,21.74A47.44,47.44,0,0,0,277.65,355a27.83,27.83,0,0,0,2,12,.41.41,0,0,1-.2.54.42.42,0,0,1-.54-.21h0a28.66,28.66,0,0,1-2-12.3,47.59,47.59,0,0,1,2.22-12.25,67.48,67.48,0,0,1,11.7-21.81,60.66,60.66,0,0,1,8.66-8.89c3.19-2.63,6.38-5.25,9.29-8.18a90.22,90.22,0,0,0,8.21-9.27A58.11,58.11,0,0,0,323.56,284.1Z" transform="translate(-7.42 -11.97)"/></g><path class="cls-22" d="M27.25,273.45S17.91,264.94,13,243.67c28.59,24.23,35.59,45.82,35.59,45.82Z" transform="translate(-7.42 -11.97)"/><g class="cls-23"><path d="M13,243.67q6,8.54,11.65,17.26,2.84,4.38,5.54,8.83a90.35,90.35,0,0,1,5,9.19.39.39,0,0,1-.2.54.41.41,0,0,1-.54-.2h0a92.18,92.18,0,0,0-4.77-9.2c-1.73-3-3.53-6-5.36-8.92Q18.76,252.32,13,243.67Z" transform="translate(-7.42 -11.97)"/></g><path class="cls-6" d="M48,285.41c-5.14-4.64-12.75-9.23-20-14.17-9.63-6.57-18.61-13.79-20.27-22.61-3.79,31.82,33.22,46.14,33.22,46.14l.07.11,13.44,19.6S59.92,296.2,48,285.41Z" transform="translate(-7.42 -11.97)"/><g class="cls-23"><path d="M7.7,248.63a24.58,24.58,0,0,0,2.54,10.2,31.56,31.56,0,0,0,6.18,8.53,52.94,52.94,0,0,0,8.38,6.43c3,1.93,6,3.79,8.9,5.79,5.83,4,11.43,8.59,15.34,14.6a36.7,36.7,0,0,1,5.8,20.3.41.41,0,0,1-.41.41.41.41,0,0,1-.41-.41h0a35.89,35.89,0,0,0-5.5-20c-3.78-5.94-9.28-10.59-15.06-14.59-2.89-2-5.88-3.91-8.83-5.87a52.72,52.72,0,0,1-8.35-6.55,31.49,31.49,0,0,1-6.13-8.62A24.51,24.51,0,0,1,7.7,248.63Z" transform="translate(-7.42 -11.97)"/></g><text class="cls-27" transform="translate(122.06 78.63) scale(0.99 1)">JS</text><text class="cls-28" transform="translate(137.19 123.34)">https://meoo.space</text></g></g></svg>